<svg id="Group_324" data-name="Group 324" xmlns="http://www.w3.org/2000/svg" xmlns:xlink="http://www.w3.org/1999/xlink" width="363.293" height="139.923" viewBox="0 0 363.293 139.923">
  <defs>
    <clipPath id="clip-path">
      <rect id="Rectangle_408" data-name="Rectangle 408" width="363.293" height="139.923" fill="#1c1c1a"/>
    </clipPath>
  </defs>
  <g id="Group_323" data-name="Group 323" clip-path="url(#clip-path)">
    <path id="Path_101" data-name="Path 101" d="M45.614,15.692h6.843a2.824,2.824,0,0,0,2.281-1.231,5.257,5.257,0,0,0,.958-3.239A4.458,4.458,0,0,0,54.6,8.074a3.167,3.167,0,0,0-2.372-1.232H45.614Zm-7.481,16.97V.273h14.6a9.265,9.265,0,0,1,4.2.958A10.233,10.233,0,0,1,60.3,3.74a11.374,11.374,0,0,1,2.19,3.513,10.207,10.207,0,0,1,.821,3.969,11.026,11.026,0,0,1-1.46,5.565,9.675,9.675,0,0,1-3.832,3.832l7.117,12.043H56.882l-6.2-10.446H45.614V32.662Z" fill="#1c1c1a"/>
    <path id="Path_102" data-name="Path 102" d="M99.358,6.842H89.5v25.82H82.023V6.842h-9.9V.273H99.358Z" fill="#1c1c1a"/>
    <path id="Path_103" data-name="Path 103" d="M122.335,20.254,118.548,7.8l-3.877,12.454ZM114.534.273h8.074l11.131,32.389h-7.664l-2.509-7.254H113.485l-2.464,7.254h-7.663Z" fill="#1c1c1a"/>
    <path id="Path_104" data-name="Path 104" d="M162.348,9.762a4.511,4.511,0,0,0-.958-.685,17.989,17.989,0,0,0-2.053-1.048,13.967,13.967,0,0,0-2.691-.958,10.732,10.732,0,0,0-2.92-.411q-4.014,0-4.014,2.691a2.387,2.387,0,0,0,1.733,2.327q1.779.684,5.064,1.642a28.948,28.948,0,0,1,5.337,2.007,8.473,8.473,0,0,1,3.513,2.966,8.5,8.5,0,0,1,1.231,4.835,9.922,9.922,0,0,1-1,4.653,8.537,8.537,0,0,1-2.737,3.056,12.659,12.659,0,0,1-3.923,1.688,19.539,19.539,0,0,1-4.471.5,26.656,26.656,0,0,1-7.3-1.049,24.231,24.231,0,0,1-6.523-2.965l3.284-6.524a6.415,6.415,0,0,0,1.187.867,26.981,26.981,0,0,0,2.508,1.277,22.923,22.923,0,0,0,3.285,1.186,15.133,15.133,0,0,0,3.7.457q3.969,0,3.969-2.418a2.164,2.164,0,0,0-1.05-1.916,8.834,8.834,0,0,0-2.782-1.232q-1.779-.547-4.015-1.231a17.345,17.345,0,0,1-6.614-3.331,7.306,7.306,0,0,1-2.1-5.612,9.918,9.918,0,0,1,1.6-5.746,10.089,10.089,0,0,1,4.379-3.56A14.412,14.412,0,0,1,153.954,0a17.743,17.743,0,0,1,6.478,1.186,35.214,35.214,0,0,1,5.2,2.372Z" fill="#1c1c1a"/>
    <path id="Path_105" data-name="Path 105" d="M15.145,86.384a13.549,13.549,0,0,1-6.067-1.369,15.979,15.979,0,0,1-4.79-3.786A18.063,18.063,0,0,1,1.1,75.938,17.211,17.211,0,0,1,4.242,58.512a14.6,14.6,0,0,1,4.745-3.65,13.545,13.545,0,0,1,5.976-1.323,14.054,14.054,0,0,1,7.8,1.962,12.725,12.725,0,0,1,4.562,5.109l-2.463,1.642a10.129,10.129,0,0,0-4.152-4.425,11.931,11.931,0,0,0-5.793-1.414,10.4,10.4,0,0,0-4.881,1.141,11.9,11.9,0,0,0-3.7,3.056,14.5,14.5,0,0,0-2.327,4.334,15.5,15.5,0,0,0-.821,5.018,14.834,14.834,0,0,0,.913,5.2A14.428,14.428,0,0,0,6.66,79.5a13.048,13.048,0,0,0,3.878,2.965,11.441,11.441,0,0,0,10.127-.274,16.194,16.194,0,0,0,4.881-4.1V72.7H18.338V70.235h9.9V86.156H25.546V81.412a13.612,13.612,0,0,1-10.4,4.972" fill="#1c1c1a"/>
    <path id="Path_106" data-name="Path 106" d="M62.944,83.327v2.828H41.184V53.767H62.533V56.6H44.378V68.273H60.207v2.692H44.378V83.327Z" fill="#1c1c1a"/>
    <path id="Path_107" data-name="Path 107" d="M78.563,59.652v26.5H75.37V53.767h2.646L99.273,80.773V53.813h3.194V86.156H99.5Z" fill="#1c1c1a"/>
    <path id="Path_108" data-name="Path 108" d="M138.753,83.327v2.828h-21.76V53.767h21.349V56.6H120.187V68.273h15.829v2.692H120.187V83.327Z" fill="#1c1c1a"/>
    <path id="Path_109" data-name="Path 109" d="M154.372,71.376h10.584a5.432,5.432,0,0,0,3.33-1.05,7.324,7.324,0,0,0,2.189-2.782,8.531,8.531,0,0,0,.776-3.6,7.288,7.288,0,0,0-.913-3.6,7.013,7.013,0,0,0-2.372-2.691,5.618,5.618,0,0,0-3.284-1.049h-10.31Zm-3.193,14.78V53.767h13.685a8.456,8.456,0,0,1,3.832.866,9.35,9.35,0,0,1,3.057,2.373,10.6,10.6,0,0,1,1.961,3.285,9.52,9.52,0,0,1,.73,3.648,10.776,10.776,0,0,1-.912,4.426,9.256,9.256,0,0,1-2.509,3.467,8.024,8.024,0,0,1-3.787,1.825l7.938,12.5h-3.6L163.952,74.2h-9.58V86.156Z" fill="#1c1c1a"/>
    <path id="Path_110" data-name="Path 110" d="M205.116,73.519l-6.523-16.011-6.615,16.011ZM197.27,53.767h2.691l13.458,32.389h-3.376l-4.2-10.128H191.294l-4.151,10.128h-3.421Z" fill="#1c1c1a"/>
    <path id="Path_111" data-name="Path 111" d="M224.448,86.156V53.767h3.193V83.327h18.7v2.828Z" fill="#1c1c1a"/>
    <path id="Path_112" data-name="Path 112" d="M0,123.227a17.463,17.463,0,0,1,1-5.793,17.109,17.109,0,0,1,3.01-5.2,14.007,14.007,0,0,1,4.836-3.741,14.592,14.592,0,0,1,6.523-1.414,13.3,13.3,0,0,1,7.39,2.008,11.947,11.947,0,0,1,4.562,5.063L24.816,115.7a9.355,9.355,0,0,0-2.646-3.376,10.1,10.1,0,0,0-3.421-1.824,12.041,12.041,0,0,0-3.558-.548,10.84,10.84,0,0,0-5.155,1.186,11.359,11.359,0,0,0-3.786,3.1,14.431,14.431,0,0,0-2.281,4.334,15.465,15.465,0,0,0-.776,4.835,14.7,14.7,0,0,0,.913,5.155A14.416,14.416,0,0,0,6.66,132.9a12.793,12.793,0,0,0,3.832,3.056,10.843,10.843,0,0,0,4.836,1.1,11.809,11.809,0,0,0,3.74-.638,11.363,11.363,0,0,0,3.558-1.962,10.135,10.135,0,0,0,2.692-3.421l2.646,1.368a10.644,10.644,0,0,1-3.148,4.106,14.427,14.427,0,0,1-4.653,2.554,15.555,15.555,0,0,1-5.018.867,13.294,13.294,0,0,1-6.113-1.414A16.433,16.433,0,0,1,4.2,134.677a18.279,18.279,0,0,1-3.1-5.383A17.635,17.635,0,0,1,0,123.227" fill="#1c1c1a"/>
    <path id="Path_113" data-name="Path 113" d="M40.5,123.456a14.883,14.883,0,0,0,.866,5.063,14.177,14.177,0,0,0,2.464,4.334,12.243,12.243,0,0,0,3.786,3.056,10.943,10.943,0,0,0,4.881,1.1,10.6,10.6,0,0,0,4.972-1.14,11.86,11.86,0,0,0,3.787-3.148,14.141,14.141,0,0,0,2.417-4.334,15.2,15.2,0,0,0,.821-4.926,14.889,14.889,0,0,0-.866-5.064,13.713,13.713,0,0,0-2.509-4.334,11.686,11.686,0,0,0-3.787-3.01,10.653,10.653,0,0,0-4.835-1.095,10.781,10.781,0,0,0-4.972,1.14,12,12,0,0,0-3.787,3.1,14.715,14.715,0,0,0-2.417,4.334,15.208,15.208,0,0,0-.821,4.927m12,16.422a13.858,13.858,0,0,1-6.2-1.369,15.573,15.573,0,0,1-4.79-3.74,17.337,17.337,0,0,1-4.2-11.313,17.154,17.154,0,0,1,4.334-11.4,15.457,15.457,0,0,1,4.881-3.649,14.023,14.023,0,0,1,12.18.045,15.276,15.276,0,0,1,4.79,3.787,16.622,16.622,0,0,1,3.1,5.291,16.894,16.894,0,0,1,1.1,5.976,17.121,17.121,0,0,1-1.141,6.2,17.451,17.451,0,0,1-3.193,5.246,15.25,15.25,0,0,1-4.835,3.6,13.849,13.849,0,0,1-6.022,1.323" fill="#1c1c1a"/>
    <path id="Path_114" data-name="Path 114" d="M83.285,113.146v26.5H80.092V107.261h2.646l21.257,27.006v-26.96h3.194V139.65h-2.965Z" fill="#1c1c1a"/>
    <path id="Path_115" data-name="Path 115" d="M144.707,110.089H133.166v29.56h-3.194v-29.56H118.431v-2.828h26.276Z" fill="#1c1c1a"/>
    <path id="Path_116" data-name="Path 116" d="M159.138,124.869h10.584a5.438,5.438,0,0,0,3.33-1.049,7.335,7.335,0,0,0,2.189-2.783,8.53,8.53,0,0,0,.776-3.6,7.289,7.289,0,0,0-.913-3.6,7.013,7.013,0,0,0-2.372-2.691,5.618,5.618,0,0,0-3.284-1.049h-10.31Zm-3.193,14.78V107.26H169.63a8.443,8.443,0,0,1,3.832.867,9.334,9.334,0,0,1,3.057,2.372,10.6,10.6,0,0,1,1.961,3.285,9.521,9.521,0,0,1,.73,3.649,10.771,10.771,0,0,1-.912,4.425,9.256,9.256,0,0,1-2.509,3.467A8.014,8.014,0,0,1,172,127.15l7.938,12.5h-3.6L168.718,127.7h-9.58v11.952Z" fill="#1c1c1a"/>
    <path id="Path_117" data-name="Path 117" d="M209.883,127.013,203.36,111l-6.615,16.011Zm-7.846-19.752h2.691l13.458,32.389H214.81l-4.2-10.128H196.061L191.91,139.65h-3.421Z" fill="#1c1c1a"/>
    <path id="Path_118" data-name="Path 118" d="M225.868,123.227a17.464,17.464,0,0,1,1-5.793,17.109,17.109,0,0,1,3.01-5.2,14.007,14.007,0,0,1,4.836-3.741,14.592,14.592,0,0,1,6.523-1.414,13.3,13.3,0,0,1,7.39,2.008,11.947,11.947,0,0,1,4.562,5.063l-2.509,1.551a9.355,9.355,0,0,0-2.646-3.376,10.1,10.1,0,0,0-3.421-1.824,12.041,12.041,0,0,0-3.558-.548,10.84,10.84,0,0,0-5.155,1.186,11.359,11.359,0,0,0-3.786,3.1,14.431,14.431,0,0,0-2.281,4.334,15.465,15.465,0,0,0-.776,4.835,14.7,14.7,0,0,0,.913,5.155,14.416,14.416,0,0,0,2.554,4.334,12.793,12.793,0,0,0,3.832,3.056,10.843,10.843,0,0,0,4.836,1.1,11.809,11.809,0,0,0,3.74-.638,11.363,11.363,0,0,0,3.558-1.962,10.135,10.135,0,0,0,2.692-3.421l2.646,1.368a10.644,10.644,0,0,1-3.148,4.106,14.427,14.427,0,0,1-4.653,2.554,15.555,15.555,0,0,1-5.018.867,13.294,13.294,0,0,1-6.113-1.414,16.433,16.433,0,0,1-4.835-3.832,18.279,18.279,0,0,1-3.1-5.383,17.635,17.635,0,0,1-1.1-6.067" fill="#1c1c1a"/>
    <path id="Path_119" data-name="Path 119" d="M288.574,110.089H277.033v29.56h-3.194v-29.56H262.3v-2.828h26.276Z" fill="#1c1c1a"/>
    <path id="Path_120" data-name="Path 120" d="M299.7,123.456a14.883,14.883,0,0,0,.866,5.063,14.177,14.177,0,0,0,2.464,4.334,12.242,12.242,0,0,0,3.786,3.056A10.943,10.943,0,0,0,311.7,137a10.6,10.6,0,0,0,4.972-1.14,11.85,11.85,0,0,0,3.787-3.148,14.142,14.142,0,0,0,2.417-4.334,15.2,15.2,0,0,0,.821-4.926,14.913,14.913,0,0,0-.866-5.064,13.713,13.713,0,0,0-2.509-4.334,11.687,11.687,0,0,0-3.787-3.01,10.654,10.654,0,0,0-4.835-1.095,10.781,10.781,0,0,0-4.972,1.14,12,12,0,0,0-3.787,3.1,14.715,14.715,0,0,0-2.417,4.334,15.208,15.208,0,0,0-.821,4.927m12,16.422a13.858,13.858,0,0,1-6.2-1.369,15.573,15.573,0,0,1-4.79-3.74,17.337,17.337,0,0,1-4.2-11.313,17.154,17.154,0,0,1,4.334-11.4,15.457,15.457,0,0,1,4.881-3.649,14.023,14.023,0,0,1,12.18.045,15.276,15.276,0,0,1,4.79,3.787,16.623,16.623,0,0,1,3.1,5.291,16.894,16.894,0,0,1,1.1,5.976,17.122,17.122,0,0,1-1.141,6.2,17.451,17.451,0,0,1-3.193,5.246,15.239,15.239,0,0,1-4.835,3.6,13.849,13.849,0,0,1-6.022,1.323" fill="#1c1c1a"/>
    <path id="Path_121" data-name="Path 121" d="M342.491,124.869h10.583a5.439,5.439,0,0,0,3.331-1.049,7.335,7.335,0,0,0,2.189-2.783,8.53,8.53,0,0,0,.776-3.6,7.289,7.289,0,0,0-.913-3.6,7.013,7.013,0,0,0-2.372-2.691,5.618,5.618,0,0,0-3.284-1.049h-10.31Zm-3.193,14.78V107.26h13.685a8.443,8.443,0,0,1,3.832.867,9.334,9.334,0,0,1,3.057,2.372,10.6,10.6,0,0,1,1.961,3.285,9.521,9.521,0,0,1,.73,3.649,10.771,10.771,0,0,1-.912,4.425,9.267,9.267,0,0,1-2.509,3.467,8.014,8.014,0,0,1-3.787,1.825l7.938,12.5h-3.6L352.071,127.7h-9.58v11.952Z" fill="#1c1c1a"/>
    <path id="Path_122" data-name="Path 122" d="M15.19,7.8l3.786,12.453H11.313ZM11.176.273,0,32.662H7.663l2.464-7.254H20.208l2.509,7.254h7.664L19.25.273Z" fill="#1c1c1a"/>
  </g>
</svg>
