<?xml version="1.0" encoding="utf-8"?>
<!-- Generator: Adobe Illustrator 27.0.0, SVG Export Plug-In . SVG Version: 6.00 Build 0)  -->
<svg version="1.1" id="Warstwa_1" xmlns="http://www.w3.org/2000/svg" xmlns:xlink="http://www.w3.org/1999/xlink" x="0px" y="0px"
	 viewBox="0 0 182 70" style="enable-background:new 0 0 182 70;" xml:space="preserve">
<path d="M9.7,10.14l-1.9-6.23l-1.94,6.23H9.7z M5.8,0.15h4.04l5.57,16.2h-3.84l-1.26-3.63H5.27l-1.23,3.63H0.2L5.8,0.15z"/>
<path d="M23.95,7.86h3.42c0.44,0,0.82-0.21,1.14-0.62c0.32-0.43,0.48-0.97,0.48-1.62c0-0.65-0.18-1.18-0.55-1.57
	c-0.37-0.41-0.76-0.62-1.19-0.62h-3.31V7.86z M20.2,16.35V0.15h7.31c0.76,0,1.46,0.16,2.1,0.48c0.65,0.3,1.22,0.72,1.69,1.25
	c0.47,0.52,0.84,1.1,1.1,1.76c0.27,0.65,0.41,1.32,0.41,1.99c0,1-0.24,1.93-0.73,2.78c-0.47,0.84-1.11,1.48-1.92,1.92l3.56,6.02
	h-4.13l-3.11-5.23h-2.53v5.23H20.2z"/>
<polygon points="50.85,3.43 45.91,3.43 45.91,16.35 42.17,16.35 42.17,3.43 37.21,3.43 37.21,0.15 50.85,0.15 "/>
<path d="M62.35,10.14l-1.9-6.23l-1.94,6.23H62.35z M58.44,0.15h4.04l5.57,16.2h-3.84l-1.26-3.63h-5.05l-1.23,3.63h-3.84L58.44,0.15z
	"/>
<path d="M82.37,4.89c-0.05-0.06-0.21-0.17-0.48-0.34c-0.27-0.17-0.62-0.34-1.03-0.52c-0.41-0.2-0.86-0.36-1.35-0.48
	c-0.49-0.14-0.97-0.21-1.46-0.21c-1.34,0-2.01,0.45-2.01,1.35c0,0.55,0.29,0.94,0.87,1.16c0.59,0.23,1.44,0.5,2.53,0.82
	c1.04,0.29,1.93,0.62,2.67,1c0.76,0.37,1.35,0.86,1.76,1.48c0.41,0.61,0.62,1.41,0.62,2.42c0,0.91-0.17,1.69-0.5,2.33
	c-0.33,0.62-0.79,1.13-1.37,1.53c-0.58,0.38-1.23,0.66-1.96,0.84c-0.72,0.17-1.46,0.25-2.24,0.25c-1.2,0-2.42-0.17-3.65-0.52
	c-1.23-0.37-2.32-0.86-3.26-1.48l1.64-3.26c0.06,0.08,0.26,0.22,0.59,0.43c0.33,0.2,0.75,0.41,1.26,0.64
	c0.5,0.23,1.05,0.43,1.64,0.59c0.61,0.15,1.23,0.23,1.85,0.23c1.32,0,1.99-0.4,1.99-1.21c0-0.41-0.18-0.73-0.53-0.96
	c-0.33-0.24-0.8-0.45-1.39-0.62c-0.59-0.18-1.26-0.39-2.01-0.62c-1.49-0.46-2.6-1.01-3.31-1.67c-0.7-0.65-1.05-1.59-1.05-2.81
	c0-1.14,0.27-2.1,0.8-2.87c0.55-0.79,1.28-1.38,2.19-1.78c0.91-0.41,1.91-0.62,2.99-0.62c1.14,0,2.22,0.2,3.24,0.59
	c1.02,0.38,1.89,0.78,2.6,1.19L82.37,4.89z"/>
<path d="M7.72,43.22c-1.1,0-2.11-0.23-3.04-0.68c-0.91-0.47-1.71-1.1-2.4-1.89s-1.22-1.67-1.6-2.65C0.32,37,0.14,36,0.14,34.98
	c0-1.08,0.18-2.11,0.55-3.08c0.38-0.99,0.91-1.86,1.58-2.62c0.67-0.78,1.46-1.38,2.37-1.83c0.91-0.44,1.91-0.66,2.99-0.66
	c1.6,0,2.9,0.33,3.9,0.98c1,0.65,1.77,1.51,2.28,2.56l-1.23,0.82c-0.52-1-1.21-1.74-2.08-2.21c-0.87-0.47-1.83-0.71-2.9-0.71
	c-0.9,0-1.71,0.19-2.44,0.57c-0.72,0.38-1.33,0.89-1.85,1.53c-0.5,0.64-0.89,1.36-1.16,2.17C1.87,33.3,1.73,34.13,1.73,35
	c0,0.91,0.15,1.78,0.46,2.6c0.3,0.81,0.73,1.53,1.28,2.17c0.56,0.62,1.21,1.12,1.94,1.48c0.75,0.35,1.55,0.52,2.42,0.52
	c0.93,0,1.81-0.22,2.65-0.66c0.85-0.44,1.67-1.13,2.44-2.05v-2.69H9.31v-1.23h4.95v7.96h-1.35v-2.37
	C11.43,42.39,9.69,43.22,7.72,43.22z"/>
<polygon points="31.64,41.69 31.64,43.1 20.75,43.1 20.75,26.9 31.43,26.9 31.43,28.32 22.35,28.32 22.35,34.16 30.27,34.16 
	30.27,35.5 22.35,35.5 22.35,41.69 "/>
<polygon points="39.46,29.85 39.46,43.1 37.86,43.1 37.86,26.9 39.18,26.9 49.82,40.41 49.82,26.92 51.42,26.92 51.42,43.1 
	49.94,43.1 "/>
<polygon points="69.58,41.69 69.58,43.1 58.69,43.1 58.69,26.9 69.38,26.9 69.38,28.32 60.29,28.32 60.29,34.16 68.21,34.16 
	68.21,35.5 60.29,35.5 60.29,41.69 "/>
<path d="M77.4,35.71h5.3c0.64,0,1.19-0.17,1.67-0.52c0.47-0.37,0.84-0.83,1.1-1.39c0.26-0.56,0.39-1.16,0.39-1.8
	c0-0.65-0.15-1.25-0.46-1.8c-0.29-0.56-0.68-1.01-1.19-1.35c-0.5-0.35-1.05-0.52-1.64-0.52H77.4V35.71z M75.8,43.1V26.9h6.85
	c0.7,0,1.34,0.14,1.92,0.43c0.59,0.29,1.1,0.68,1.53,1.19c0.43,0.49,0.75,1.03,0.98,1.64c0.24,0.59,0.37,1.2,0.37,1.83
	c0,0.79-0.15,1.53-0.46,2.21c-0.29,0.68-0.71,1.26-1.26,1.73c-0.55,0.47-1.18,0.78-1.9,0.91l3.97,6.25h-1.8l-3.81-5.98H77.4v5.98
	H75.8z"/>
<path d="M102.8,36.78l-3.26-8.01l-3.31,8.01H102.8z M98.87,26.9h1.35l6.74,16.2h-1.69l-2.1-5.07h-7.28L93.8,43.1h-1.71L98.87,26.9z"
	/>
<polygon points="112.47,43.1 112.47,26.9 114.07,26.9 114.07,41.69 123.43,41.69 123.43,43.1 "/>
<path d="M0.14,61.64c0-0.97,0.17-1.94,0.5-2.9c0.35-0.96,0.85-1.83,1.51-2.6c0.65-0.79,1.46-1.41,2.42-1.87
	c0.96-0.47,2.05-0.71,3.26-0.71c1.43,0,2.66,0.33,3.7,1c1.04,0.65,1.8,1.5,2.28,2.53l-1.26,0.78c-0.35-0.71-0.79-1.28-1.32-1.69
	c-0.53-0.43-1.1-0.73-1.71-0.91c-0.59-0.18-1.19-0.27-1.78-0.27c-0.97,0-1.83,0.2-2.58,0.59c-0.75,0.38-1.38,0.9-1.9,1.55
	c-0.5,0.65-0.88,1.38-1.14,2.17s-0.39,1.6-0.39,2.42c0,0.9,0.15,1.76,0.46,2.58c0.3,0.81,0.73,1.53,1.28,2.17
	c0.55,0.64,1.19,1.15,1.92,1.53c0.75,0.37,1.55,0.55,2.42,0.55c0.61,0,1.23-0.11,1.87-0.32c0.64-0.21,1.23-0.54,1.78-0.98
	s1-1.01,1.35-1.71l1.32,0.68c-0.35,0.81-0.88,1.49-1.58,2.05c-0.68,0.56-1.46,0.99-2.33,1.28C9.38,69.85,8.54,70,7.72,70
	c-1.11,0-2.13-0.24-3.06-0.71c-0.93-0.49-1.74-1.13-2.42-1.92c-0.67-0.81-1.19-1.7-1.55-2.69C0.32,63.68,0.14,62.66,0.14,61.64z"/>
<path d="M20.4,61.76c0,0.88,0.14,1.73,0.43,2.53c0.29,0.81,0.7,1.53,1.23,2.17s1.16,1.15,1.9,1.53c0.75,0.37,1.56,0.55,2.44,0.55
	c0.93,0,1.76-0.19,2.49-0.57c0.75-0.4,1.38-0.92,1.9-1.57c0.53-0.65,0.94-1.38,1.21-2.17c0.27-0.81,0.41-1.63,0.41-2.46
	c0-0.88-0.14-1.73-0.43-2.53s-0.71-1.53-1.26-2.17c-0.53-0.64-1.16-1.14-1.9-1.51c-0.73-0.37-1.54-0.55-2.42-0.55
	c-0.91,0-1.74,0.19-2.49,0.57c-0.73,0.38-1.36,0.9-1.9,1.55c-0.52,0.64-0.92,1.36-1.21,2.17C20.54,60.1,20.4,60.92,20.4,61.76z
	 M26.41,69.97c-1.14,0-2.18-0.23-3.11-0.68c-0.93-0.47-1.73-1.1-2.4-1.87c-0.67-0.78-1.19-1.65-1.55-2.62
	c-0.37-0.99-0.55-2-0.55-3.03c0-1.08,0.19-2.11,0.57-3.08c0.38-0.99,0.91-1.86,1.6-2.62c0.7-0.78,1.51-1.38,2.44-1.83
	c0.93-0.46,1.93-0.68,3.01-0.68c1.13,0,2.15,0.24,3.08,0.71c0.93,0.47,1.73,1.1,2.4,1.89c0.68,0.79,1.2,1.67,1.55,2.65
	c0.37,0.97,0.55,1.97,0.55,2.99c0,1.08-0.19,2.11-0.57,3.1c-0.38,0.97-0.91,1.85-1.6,2.62c-0.68,0.76-1.49,1.36-2.42,1.8
	C28.49,69.75,27.49,69.97,26.41,69.97z"/>
<polygon points="41.82,56.6 41.82,69.86 40.22,69.86 40.22,53.66 41.55,53.66 52.18,67.17 52.18,53.68 53.78,53.68 53.78,69.86 
	52.3,69.86 "/>
<polygon points="72.56,55.07 66.78,55.07 66.78,69.86 65.19,69.86 65.19,55.07 59.41,55.07 59.41,53.66 72.56,53.66 "/>
<path d="M79.78,62.47h5.3c0.64,0,1.19-0.17,1.67-0.52c0.47-0.37,0.84-0.83,1.1-1.39c0.26-0.56,0.39-1.16,0.39-1.8
	c0-0.65-0.15-1.25-0.46-1.8c-0.29-0.56-0.68-1.01-1.19-1.35c-0.5-0.35-1.05-0.52-1.64-0.52h-5.16V62.47z M78.19,69.86v-16.2h6.85
	c0.7,0,1.34,0.14,1.92,0.43c0.59,0.29,1.1,0.68,1.53,1.19c0.43,0.49,0.75,1.03,0.98,1.64c0.24,0.59,0.37,1.2,0.37,1.83
	c0,0.79-0.15,1.53-0.46,2.21c-0.29,0.68-0.71,1.26-1.26,1.73c-0.55,0.47-1.18,0.78-1.89,0.91l3.97,6.25h-1.8l-3.81-5.98h-4.79v5.98
	H78.19z"/>
<path d="M105.18,63.54l-3.26-8.01l-3.31,8.01H105.18z M101.25,53.66h1.35l6.74,16.2h-1.69l-2.1-5.07h-7.28l-2.08,5.07h-1.71
	L101.25,53.66z"/>
<path d="M113.18,61.64c0-0.97,0.17-1.94,0.5-2.9c0.35-0.96,0.85-1.83,1.51-2.6c0.65-0.79,1.46-1.41,2.42-1.87
	c0.96-0.47,2.05-0.71,3.26-0.71c1.43,0,2.66,0.33,3.7,1c1.04,0.65,1.8,1.5,2.28,2.53l-1.26,0.78c-0.35-0.71-0.79-1.28-1.32-1.69
	c-0.53-0.43-1.1-0.73-1.71-0.91c-0.59-0.18-1.19-0.27-1.78-0.27c-0.97,0-1.83,0.2-2.58,0.59c-0.75,0.38-1.38,0.9-1.89,1.55
	c-0.5,0.65-0.88,1.38-1.14,2.17c-0.26,0.79-0.39,1.6-0.39,2.42c0,0.9,0.15,1.76,0.46,2.58c0.3,0.81,0.73,1.53,1.28,2.17
	c0.55,0.64,1.19,1.15,1.92,1.53c0.75,0.37,1.55,0.55,2.42,0.55c0.61,0,1.23-0.11,1.87-0.32c0.64-0.21,1.23-0.54,1.78-0.98
	s1-1.01,1.35-1.71l1.32,0.68c-0.35,0.81-0.88,1.49-1.58,2.05c-0.68,0.56-1.46,0.99-2.33,1.28c-0.85,0.29-1.69,0.43-2.51,0.43
	c-1.11,0-2.13-0.24-3.06-0.71c-0.93-0.49-1.74-1.13-2.42-1.92c-0.67-0.81-1.19-1.7-1.55-2.69
	C113.36,63.68,113.18,62.66,113.18,61.64z"/>
<polygon points="144.57,55.07 138.79,55.07 138.79,69.86 137.19,69.86 137.19,55.07 131.41,55.07 131.41,53.66 144.57,53.66 "/>
<path d="M150.14,61.76c0,0.88,0.14,1.73,0.43,2.53c0.29,0.81,0.7,1.53,1.23,2.17c0.53,0.64,1.16,1.15,1.9,1.53
	c0.75,0.37,1.56,0.55,2.44,0.55c0.93,0,1.76-0.19,2.49-0.57c0.75-0.4,1.38-0.92,1.9-1.57c0.53-0.65,0.94-1.38,1.21-2.17
	c0.27-0.81,0.41-1.63,0.41-2.46c0-0.88-0.14-1.73-0.43-2.53c-0.29-0.81-0.71-1.53-1.26-2.17c-0.53-0.64-1.16-1.14-1.9-1.51
	c-0.73-0.37-1.54-0.55-2.42-0.55c-0.91,0-1.74,0.19-2.49,0.57c-0.73,0.38-1.36,0.9-1.9,1.55c-0.52,0.64-0.92,1.36-1.21,2.17
	C150.27,60.1,150.14,60.92,150.14,61.76z M156.14,69.97c-1.14,0-2.18-0.23-3.11-0.68c-0.93-0.47-1.73-1.1-2.4-1.87
	c-0.67-0.78-1.19-1.65-1.55-2.62c-0.37-0.99-0.55-2-0.55-3.03c0-1.08,0.19-2.11,0.57-3.08c0.38-0.99,0.91-1.86,1.6-2.62
	c0.7-0.78,1.51-1.38,2.44-1.83c0.93-0.46,1.93-0.68,3.01-0.68c1.13,0,2.15,0.24,3.08,0.71c0.93,0.47,1.73,1.1,2.4,1.89
	c0.68,0.79,1.2,1.67,1.55,2.65c0.37,0.97,0.55,1.97,0.55,2.99c0,1.08-0.19,2.11-0.57,3.1c-0.38,0.97-0.91,1.85-1.6,2.62
	c-0.68,0.76-1.49,1.36-2.42,1.8C158.23,69.75,157.22,69.97,156.14,69.97z"/>
<path d="M171.55,62.47h5.3c0.64,0,1.19-0.17,1.67-0.52c0.47-0.37,0.84-0.83,1.1-1.39c0.26-0.56,0.39-1.16,0.39-1.8
	c0-0.65-0.15-1.25-0.46-1.8c-0.29-0.56-0.68-1.01-1.19-1.35c-0.5-0.35-1.05-0.52-1.64-0.52h-5.16V62.47z M169.95,69.86v-16.2h6.85
	c0.7,0,1.34,0.14,1.92,0.43c0.59,0.29,1.1,0.68,1.53,1.19c0.43,0.49,0.75,1.03,0.98,1.64c0.24,0.59,0.37,1.2,0.37,1.83
	c0,0.79-0.15,1.53-0.46,2.21c-0.29,0.68-0.71,1.26-1.26,1.73c-0.55,0.47-1.18,0.78-1.9,0.91l3.97,6.25h-1.8l-3.81-5.98h-4.79v5.98
	H169.95z"/>
</svg>
