<svg xmlns="http://www.w3.org/2000/svg" xmlns:xlink="http://www.w3.org/1999/xlink" width="392" height="91.704" viewBox="0 0 392 91.704">
  <defs>
    <clipPath id="clip-path">
      <rect id="Rectangle_316" data-name="Rectangle 316" width="392" height="91.704" fill="none"/>
    </clipPath>
  </defs>
  <g id="Group_257" data-name="Group 257" transform="translate(0 0)">
    <path id="Path_47" data-name="Path 47" d="M0,36.546,95.875,91.729V55.26L0,.076Z" transform="translate(0 -0.026)" fill="#423fe8"/>
    <path id="Path_48" data-name="Path 48" d="M146.368,0V55.235L188.048,0Z" transform="translate(-50.493)" fill="#423fe8"/>
    <path id="Path_49" data-name="Path 49" d="M245.762,13.438,243.282,5.28l-2.54,8.158ZM240.653.35h5.289l7.291,21.216h-5.02l-1.643-4.752h-6.6l-1.614,4.752h-5.019Z" transform="translate(-80.494 -0.121)" fill="#1c1c1a"/>
    <g id="Group_256" data-name="Group 256" transform="translate(0 0)">
      <g id="Group_255" data-name="Group 255" clip-path="url(#clip-path)">
        <path id="Path_50" data-name="Path 50" d="M278.189,10.45h4.482a1.85,1.85,0,0,0,1.494-.806,3.444,3.444,0,0,0,.627-2.122,2.922,2.922,0,0,0-.717-2.063,2.074,2.074,0,0,0-1.554-.806h-4.333Zm-4.9,11.116V.35h9.562A6.064,6.064,0,0,1,285.6.977a6.716,6.716,0,0,1,2.211,1.643,7.451,7.451,0,0,1,1.435,2.3,6.689,6.689,0,0,1,.538,2.6,7.223,7.223,0,0,1-.956,3.645,6.346,6.346,0,0,1-2.51,2.51l4.662,7.888H285.57l-4.064-6.842h-3.317v6.842Z" transform="translate(-94.278 -0.121)" fill="#1c1c1a"/>
        <path id="Path_51" data-name="Path 51" d="M325.119,4.653h-6.454V21.566h-4.9V4.653H307.28V.35h17.839Z" transform="translate(-106.004 -0.121)" fill="#1c1c1a"/>
        <path id="Path_52" data-name="Path 52" d="M350.945,13.438,348.465,5.28l-2.54,8.158ZM345.836.35h5.289l7.291,21.216H353.4l-1.643-4.752h-6.6l-1.614,4.752h-5.02Z" transform="translate(-116.779 -0.121)" fill="#1c1c1a"/>
        <path id="Path_53" data-name="Path 53" d="M390.013,6.47a2.965,2.965,0,0,0-.628-.448,11.673,11.673,0,0,0-1.345-.687,9.15,9.15,0,0,0-1.763-.628,7.029,7.029,0,0,0-1.913-.269q-2.629,0-2.629,1.763a1.564,1.564,0,0,0,1.135,1.524q1.165.448,3.317,1.076a18.962,18.962,0,0,1,3.5,1.315,5.55,5.55,0,0,1,2.3,1.943,5.57,5.57,0,0,1,.806,3.167,6.5,6.5,0,0,1-.657,3.048,5.592,5.592,0,0,1-1.793,2,8.292,8.292,0,0,1-2.57,1.106,12.8,12.8,0,0,1-2.929.329,17.461,17.461,0,0,1-4.781-.687,15.873,15.873,0,0,1-4.273-1.942l2.151-4.273a4.2,4.2,0,0,0,.778.568,17.61,17.61,0,0,0,1.643.836,14.983,14.983,0,0,0,2.151.777,9.912,9.912,0,0,0,2.42.3q2.6,0,2.6-1.584a1.417,1.417,0,0,0-.688-1.255,5.788,5.788,0,0,0-1.822-.807l-2.63-.806a11.361,11.361,0,0,1-4.332-2.182,4.785,4.785,0,0,1-1.375-3.675,6.5,6.5,0,0,1,1.046-3.764A6.607,6.607,0,0,1,380.6.882a9.43,9.43,0,0,1,3.914-.806,11.622,11.622,0,0,1,4.243.777,23.062,23.062,0,0,1,3.406,1.554Z" transform="translate(-129.638 -0.026)" fill="#1c1c1a"/>
        <path id="Path_54" data-name="Path 54" d="M245.077,75.129a8.875,8.875,0,0,1-3.974-.9,10.475,10.475,0,0,1-3.138-2.479,11.843,11.843,0,0,1-2.091-3.466,11.273,11.273,0,0,1,2.061-11.414,9.554,9.554,0,0,1,3.108-2.392,8.881,8.881,0,0,1,3.914-.867,9.212,9.212,0,0,1,5.109,1.285,8.337,8.337,0,0,1,2.988,3.347l-1.613,1.075a6.633,6.633,0,0,0-2.72-2.9,7.815,7.815,0,0,0-3.795-.926,6.8,6.8,0,0,0-3.2.747,7.794,7.794,0,0,0-2.42,2,9.5,9.5,0,0,0-1.524,2.839,10.15,10.15,0,0,0-.538,3.286,9.715,9.715,0,0,0,.6,3.406,9.451,9.451,0,0,0,1.673,2.839,8.547,8.547,0,0,0,2.54,1.942,7.5,7.5,0,0,0,6.633-.179,10.608,10.608,0,0,0,3.2-2.689V66.165h-4.721V64.552h6.484V74.98H251.89V71.873a8.916,8.916,0,0,1-6.813,3.257" transform="translate(-81.123 -18.496)" fill="#1c1c1a"/>
        <path id="Path_55" data-name="Path 55" d="M290.594,73.207v1.852H276.341V53.844h13.984V55.7H278.433v7.649H288.8v1.763H278.433v8.1Z" transform="translate(-95.331 -18.575)" fill="#1c1c1a"/>
        <path id="Path_56" data-name="Path 56" d="M312.618,57.7V75.059h-2.091V53.844h1.733l13.924,17.69V53.874h2.092V75.059h-1.942Z" transform="translate(-107.124 -18.575)" fill="#1c1c1a"/>
        <path id="Path_57" data-name="Path 57" d="M366.4,73.207v1.852H352.15V53.844h13.984V55.7H354.242v7.649h10.368v1.763H354.242v8.1Z" transform="translate(-121.483 -18.575)" fill="#1c1c1a"/>
        <path id="Path_58" data-name="Path 58" d="M388.427,65.377h6.933a3.562,3.562,0,0,0,2.181-.687,4.8,4.8,0,0,0,1.434-1.823,5.588,5.588,0,0,0,.508-2.361,4.774,4.774,0,0,0-.6-2.361,4.594,4.594,0,0,0-1.554-1.763,3.68,3.68,0,0,0-2.151-.687h-6.753Zm-2.091,9.681V53.843H395.3a5.531,5.531,0,0,1,2.51.568,6.113,6.113,0,0,1,2,1.554,6.942,6.942,0,0,1,1.285,2.152,6.238,6.238,0,0,1,.478,2.39,7.055,7.055,0,0,1-.6,2.9,6.063,6.063,0,0,1-1.643,2.271,5.25,5.25,0,0,1-2.481,1.2l5.2,8.187h-2.361L394.7,67.23h-6.275v7.829Z" transform="translate(-133.276 -18.574)" fill="#1c1c1a"/>
        <path id="Path_59" data-name="Path 59" d="M432.893,66.782,428.62,56.294l-4.333,10.488Zm-5.139-12.938h1.763l8.815,21.216H436.12l-2.749-6.634h-9.532L421.12,75.06h-2.241Z" transform="translate(-144.503 -18.575)" fill="#1c1c1a"/>
        <path id="Path_60" data-name="Path 60" d="M459.605,75.059V53.843H461.7V73.207h12.251v1.852Z" transform="translate(-158.552 -18.575)" fill="#1c1c1a"/>
        <path id="Path_61" data-name="Path 61" d="M235.156,117.733a11.454,11.454,0,0,1,.658-3.795,11.2,11.2,0,0,1,1.972-3.407,9.169,9.169,0,0,1,3.168-2.45,9.555,9.555,0,0,1,4.272-.926,8.708,8.708,0,0,1,4.841,1.315,7.831,7.831,0,0,1,2.989,3.316l-1.643,1.016a6.142,6.142,0,0,0-1.733-2.211,6.627,6.627,0,0,0-2.242-1.195,7.887,7.887,0,0,0-2.331-.359,7.1,7.1,0,0,0-3.377.777,7.441,7.441,0,0,0-2.48,2.032,9.452,9.452,0,0,0-1.494,2.839,10.13,10.13,0,0,0-.508,3.167,9.631,9.631,0,0,0,.6,3.377,9.442,9.442,0,0,0,1.673,2.839,8.38,8.38,0,0,0,2.51,2,7.1,7.1,0,0,0,3.168.717,7.732,7.732,0,0,0,2.45-.418,7.437,7.437,0,0,0,2.331-1.285,6.629,6.629,0,0,0,1.763-2.241l1.733.9a6.97,6.97,0,0,1-2.061,2.69,9.467,9.467,0,0,1-3.048,1.673,10.189,10.189,0,0,1-3.287.568,8.707,8.707,0,0,1-4-.926,10.753,10.753,0,0,1-3.166-2.51,11.962,11.962,0,0,1-2.033-3.526,11.551,11.551,0,0,1-.717-3.974" transform="translate(-81.123 -36.966)" fill="#1c1c1a"/>
        <path id="Path_62" data-name="Path 62" d="M274.551,117.867a9.75,9.75,0,0,0,.567,3.316,9.289,9.289,0,0,0,1.614,2.839,8.02,8.02,0,0,0,2.48,2,7.168,7.168,0,0,0,3.2.717,6.946,6.946,0,0,0,3.257-.747,7.762,7.762,0,0,0,2.481-2.062,9.263,9.263,0,0,0,1.583-2.839,9.956,9.956,0,0,0,.538-3.227,9.751,9.751,0,0,0-.567-3.317,8.982,8.982,0,0,0-1.643-2.839,7.659,7.659,0,0,0-2.48-1.972,6.983,6.983,0,0,0-3.168-.717,7.062,7.062,0,0,0-3.257.747,7.86,7.86,0,0,0-2.481,2.032,9.638,9.638,0,0,0-1.583,2.839,9.961,9.961,0,0,0-.538,3.227m7.858,10.757a9.077,9.077,0,0,1-4.064-.9,10.2,10.2,0,0,1-3.138-2.45,11.355,11.355,0,0,1-2.749-7.41A11.236,11.236,0,0,1,275.3,110.4a10.124,10.124,0,0,1,3.2-2.39,9.186,9.186,0,0,1,7.978.029,10.007,10.007,0,0,1,3.138,2.481,10.889,10.889,0,0,1,2.032,3.466,11.066,11.066,0,0,1,.717,3.914,11.215,11.215,0,0,1-.747,4.064,11.431,11.431,0,0,1-2.091,3.436,9.989,9.989,0,0,1-3.167,2.361,9.072,9.072,0,0,1-3.945.867" transform="translate(-93.991 -36.95)" fill="#1c1c1a"/>
        <path id="Path_63" data-name="Path 63" d="M317.34,111.192v17.361h-2.092V107.337h1.733l13.924,17.69v-17.66H333v21.185h-1.942Z" transform="translate(-108.753 -37.029)" fill="#1c1c1a"/>
        <path id="Path_64" data-name="Path 64" d="M370.8,109.19h-7.56v19.363h-2.092V109.19h-7.56v-1.852H370.8Z" transform="translate(-121.979 -37.029)" fill="#1c1c1a"/>
        <path id="Path_65" data-name="Path 65" d="M393.194,118.871h6.933a3.562,3.562,0,0,0,2.181-.687,4.806,4.806,0,0,0,1.434-1.823A5.588,5.588,0,0,0,404.25,114a4.775,4.775,0,0,0-.6-2.361,4.6,4.6,0,0,0-1.554-1.763,3.68,3.68,0,0,0-2.151-.687h-6.753Zm-2.091,9.681V107.337h8.964a5.531,5.531,0,0,1,2.51.568,6.114,6.114,0,0,1,2,1.554,6.941,6.941,0,0,1,1.284,2.152,6.237,6.237,0,0,1,.478,2.39,7.056,7.056,0,0,1-.6,2.9,6.063,6.063,0,0,1-1.643,2.271,5.25,5.25,0,0,1-2.481,1.2l5.2,8.187h-2.361l-4.99-7.829h-6.275v7.829Z" transform="translate(-134.92 -37.029)" fill="#1c1c1a"/>
        <path id="Path_66" data-name="Path 66" d="M437.66,120.276l-4.273-10.488-4.333,10.488Zm-5.139-12.938h1.763l8.815,21.216h-2.211l-2.749-6.634h-9.533l-2.719,6.634h-2.24Z" transform="translate(-146.147 -37.029)" fill="#1c1c1a"/>
        <path id="Path_67" data-name="Path 67" d="M461.025,117.733a11.441,11.441,0,0,1,.658-3.795,11.208,11.208,0,0,1,1.972-3.407,9.176,9.176,0,0,1,3.168-2.45,9.558,9.558,0,0,1,4.273-.926,8.709,8.709,0,0,1,4.841,1.315,7.826,7.826,0,0,1,2.988,3.316L477.28,112.8a6.128,6.128,0,0,0-1.733-2.211,6.617,6.617,0,0,0-2.241-1.195,7.887,7.887,0,0,0-2.331-.359,7.1,7.1,0,0,0-3.377.777,7.441,7.441,0,0,0-2.48,2.032,9.452,9.452,0,0,0-1.494,2.839,10.13,10.13,0,0,0-.508,3.167,9.63,9.63,0,0,0,.6,3.377,9.442,9.442,0,0,0,1.673,2.839,8.38,8.38,0,0,0,2.51,2,7.1,7.1,0,0,0,3.168.717,7.736,7.736,0,0,0,2.45-.418,7.443,7.443,0,0,0,2.331-1.285,6.638,6.638,0,0,0,1.763-2.241l1.733.9a6.971,6.971,0,0,1-2.062,2.69,9.449,9.449,0,0,1-3.048,1.673,10.188,10.188,0,0,1-3.287.568,8.707,8.707,0,0,1-4-.926,10.764,10.764,0,0,1-3.167-2.51,11.974,11.974,0,0,1-2.032-3.526,11.55,11.55,0,0,1-.717-3.974" transform="translate(-159.042 -36.966)" fill="#1c1c1a"/>
        <path id="Path_68" data-name="Path 68" d="M514.666,109.19h-7.56v19.363h-2.091V109.19h-7.56v-1.852h17.211Z" transform="translate(-171.609 -37.029)" fill="#1c1c1a"/>
        <path id="Path_69" data-name="Path 69" d="M533.758,117.867a9.747,9.747,0,0,0,.567,3.316,9.287,9.287,0,0,0,1.614,2.839,8.02,8.02,0,0,0,2.48,2,7.168,7.168,0,0,0,3.2.717,6.946,6.946,0,0,0,3.257-.747,7.763,7.763,0,0,0,2.481-2.062,9.262,9.262,0,0,0,1.583-2.839,9.958,9.958,0,0,0,.538-3.227,9.766,9.766,0,0,0-.567-3.317,8.979,8.979,0,0,0-1.643-2.839,7.656,7.656,0,0,0-2.48-1.972,6.979,6.979,0,0,0-3.167-.717,7.062,7.062,0,0,0-3.257.747,7.861,7.861,0,0,0-2.481,2.032,9.638,9.638,0,0,0-1.583,2.839,9.963,9.963,0,0,0-.538,3.227m7.858,10.757a9.078,9.078,0,0,1-4.064-.9,10.2,10.2,0,0,1-3.138-2.45,11.356,11.356,0,0,1-2.749-7.41A11.237,11.237,0,0,1,534.5,110.4a10.122,10.122,0,0,1,3.2-2.39,9.186,9.186,0,0,1,7.978.029,10.008,10.008,0,0,1,3.138,2.481,10.888,10.888,0,0,1,2.032,3.466,11.065,11.065,0,0,1,.717,3.914,11.215,11.215,0,0,1-.747,4.064,11.433,11.433,0,0,1-2.092,3.436,9.981,9.981,0,0,1-3.167,2.361,9.072,9.072,0,0,1-3.945.867" transform="translate(-183.411 -36.95)" fill="#1c1c1a"/>
        <path id="Path_70" data-name="Path 70" d="M576.547,118.871h6.932a3.563,3.563,0,0,0,2.182-.687,4.805,4.805,0,0,0,1.434-1.823A5.59,5.59,0,0,0,587.6,114a4.774,4.774,0,0,0-.6-2.361,4.6,4.6,0,0,0-1.554-1.763,3.681,3.681,0,0,0-2.151-.687h-6.753Zm-2.091,9.681V107.337h8.964a5.531,5.531,0,0,1,2.51.568,6.116,6.116,0,0,1,2,1.554,6.942,6.942,0,0,1,1.285,2.152,6.237,6.237,0,0,1,.478,2.39,7.055,7.055,0,0,1-.6,2.9,6.07,6.07,0,0,1-1.643,2.271,5.25,5.25,0,0,1-2.481,1.2l5.2,8.187h-2.361l-4.99-7.829h-6.275v7.829Z" transform="translate(-198.172 -37.029)" fill="#1c1c1a"/>
      </g>
    </g>
  </g>
</svg>
